<?xml version="1.0" standalone="no"?><!-- Generator: Gravit.io --><svg xmlns="http://www.w3.org/2000/svg" xmlns:xlink="http://www.w3.org/1999/xlink" style="isolation:isolate" viewBox="0 0 53 72" width="53" height="72"><defs><clipPath id="_clipPath_L1j3aLy9n7ZNGkv7Am0iljvg2ItFHfpe"><rect width="53" height="72"/></clipPath></defs><g clip-path="url(#_clipPath_L1j3aLy9n7ZNGkv7Am0iljvg2ItFHfpe)"><g style="isolation:isolate"/><g style="isolation:isolate"/><g style="isolation:isolate"><path d=" M 29.828 61.758 L 29.828 65.258 L 22.828 65.258 L 22.828 61.758 L 22.828 40.878 L 30.378 33.328 L 12.438 15.388 C 11.853 14.803 11.853 13.853 12.439 13.268 L 23.858 1.858 L 25.269 0.441 C 25.853 -0.146 26.803 -0.147 27.388 0.438 L 31.278 4.328 L 28.798 6.798 L 21.278 14.328 L 35.678 28.728 C 35.678 28.728 35.678 28.728 35.678 28.728 C 36.898 29.948 37.588 31.608 37.588 33.328 C 37.588 35.048 36.898 36.708 35.678 37.928 C 35.678 37.928 35.678 37.928 35.678 37.928 L 29.828 43.778 L 29.828 61.758 Z " fill="rgb(255,255,255)"/><path d=" M 45.858 42.858 L 47.269 41.441 C 47.853 40.854 48.803 40.853 49.388 41.438 L 52.217 44.267 C 52.802 44.852 52.802 45.802 52.215 46.386 L 50.798 47.798 L 27.388 71.217 C 26.803 71.802 25.853 71.802 25.267 71.217 L 1.858 47.798 L 0.441 46.386 C -0.146 45.802 -0.147 44.852 0.438 44.267 L 3.267 41.438 C 3.852 40.853 4.802 40.854 5.386 41.441 L 6.798 42.858 L 26.328 62.378 L 45.858 42.858 Z " fill="rgb(255,255,255)"/><path d=" M 27.798 38.858 L 30.278 41.328 L 25.328 46.278 L 22.858 43.798 L 16.978 37.928 C 16.978 37.928 16.978 37.928 16.978 37.928 C 15.758 36.708 15.068 35.048 15.068 33.328 C 15.068 31.608 15.758 29.948 16.978 28.728 C 16.978 28.728 16.978 28.728 16.978 28.728 L 31.378 14.328 L 24.858 7.798 L 22.378 5.328 L 27.328 0.378 L 29.798 2.858 L 40.217 13.268 C 40.802 13.853 40.802 14.803 40.217 15.388 L 22.278 33.328 L 27.798 38.858 Z " fill="rgb(255,255,255)"/></g></g></svg>